<svg xmlns="http://www.w3.org/2000/svg" width="1560" height="960" viewBox="0 0 1560 960">
<defs>
<pattern id="dots" width="20" height="20" patternUnits="userSpaceOnUse"><circle cx="10" cy="10" r="1.2" fill="#b8c8dc"/></pattern>
</defs>
<rect width="1560" height="960" fill="#e2eaf4"/>
<rect width="1560" height="960" fill="url(#dots)"/>
<rect x="25" y="25" width="1510" height="910" fill="#f2f7ff" stroke="#1a3a6b" stroke-width="2.5" rx="10" stroke-dasharray="10,5"/>
<text x="780.0" y="58" font-size="22" fill="#1a3a6b" text-anchor="middle" font-family="Consolas,monospace" font-weight="bold">network</text>
<text x="780.0" y="76" font-size="10" fill="#4a6fa5" text-anchor="middle" font-family="Consolas,monospace" font-weight="normal">HIDDEN_NODES=64 · DATAWIDTH=16 · NEURONNODES=10 · NUMWEIGHTL1=784</text>
<rect x="94" y="134" width="195" height="260" fill="#00000018" rx="5"/><rect x="90" y="130" width="195" height="260" fill="#d6e4f7" stroke="#2c5282" stroke-width="1.5" rx="5" /><rect x="90" y="130" width="195" height="30" fill="#1a3a6b" stroke="#1a3a6b" stroke-width="1.5" rx="5" /><rect x="90" y="155" width="195" height="5" fill="#1a3a6b"/><text x="187.5" y="150" font-size="13" fill="white" text-anchor="middle" font-family="Consolas,monospace" font-weight="bold">pixel_stream</text><text x="187.5" y="174" font-size="9" fill="#4a6fa5" text-anchor="middle" font-family="Consolas,monospace" font-weight="normal">(pixels_module)</text><line x1="72" y1="207.25" x2="90" y2="207.25" stroke="#555555" stroke-width="2"/><polygon points="72,203.25 86,207.25 72,211.25" fill="#555555"/><text x="95" y="211.25" font-size="9" fill="#111" text-anchor="start" font-family="Consolas,monospace" font-weight="normal">clk</text><line x1="72" y1="257.75" x2="90" y2="257.75" stroke="#555555" stroke-width="2"/><polygon points="72,253.75 86,257.75 72,261.75" fill="#555555"/><text x="95" y="261.75" font-size="9" fill="#111" text-anchor="start" font-family="Consolas,monospace" font-weight="normal">rst</text><line x1="72" y1="308.25" x2="90" y2="308.25" stroke="#1e6b2e" stroke-width="2"/><polygon points="72,304.25 86,308.25 72,312.25" fill="#1e6b2e"/><text x="95" y="312.25" font-size="9" fill="#111" text-anchor="start" font-family="Consolas,monospace" font-weight="normal">START_FLAG</text><line x1="72" y1="358.75" x2="90" y2="358.75" stroke="#c05000" stroke-width="2"/><polygon points="72,354.75 86,358.75 72,362.75" fill="#c05000"/><text x="95" y="362.75" font-size="9" fill="#111" text-anchor="start" font-family="Consolas,monospace" font-weight="normal">image</text><text x="68" y="362.75" font-size="8" fill="#c05000" text-anchor="end" font-family="Consolas,monospace" font-weight="normal">[15:0]×784</text><line x1="285" y1="283.0" x2="303" y2="283.0" stroke="#c05000" stroke-width="2"/><polygon points="303,279.0 317,283.0 303,287.0" fill="#c05000"/><text x="280" y="287.0" font-size="9" fill="#111" text-anchor="end" font-family="Consolas,monospace" font-weight="normal">pixel_data</text><text x="320" y="287.0" font-size="8" fill="#c05000" text-anchor="start" font-family="Consolas,monospace" font-weight="normal">[15:0]</text>
<rect x="324" y="104" width="195" height="320" fill="#00000018" rx="5"/><rect x="320" y="100" width="195" height="320" fill="#d6e4f7" stroke="#2c5282" stroke-width="1.5" rx="5" /><rect x="320" y="100" width="195" height="30" fill="#1a3a6b" stroke="#1a3a6b" stroke-width="1.5" rx="5" /><rect x="320" y="125" width="195" height="5" fill="#1a3a6b"/><text x="417.5" y="120" font-size="13" fill="white" text-anchor="middle" font-family="Consolas,monospace" font-weight="bold">layer</text><text x="417.5" y="144" font-size="9" fill="#4a6fa5" text-anchor="middle" font-family="Consolas,monospace" font-weight="normal">(layer1)</text><line x1="302" y1="184.75" x2="320" y2="184.75" stroke="#555555" stroke-width="2"/><polygon points="302,180.75 316,184.75 302,188.75" fill="#555555"/><text x="325" y="188.75" font-size="9" fill="#111" text-anchor="start" font-family="Consolas,monospace" font-weight="normal">clk</text><line x1="302" y1="250.25" x2="320" y2="250.25" stroke="#555555" stroke-width="2"/><polygon points="302,246.25 316,250.25 302,254.25" fill="#555555"/><text x="325" y="254.25" font-size="9" fill="#111" text-anchor="start" font-family="Consolas,monospace" font-weight="normal">rst</text><line x1="302" y1="315.75" x2="320" y2="315.75" stroke="#1e6b2e" stroke-width="2"/><polygon points="302,311.75 316,315.75 302,319.75" fill="#1e6b2e"/><text x="325" y="319.75" font-size="9" fill="#111" text-anchor="start" font-family="Consolas,monospace" font-weight="normal">infer</text><line x1="302" y1="381.25" x2="320" y2="381.25" stroke="#c05000" stroke-width="2"/><polygon points="302,377.25 316,381.25 302,385.25" fill="#c05000"/><text x="325" y="385.25" font-size="9" fill="#111" text-anchor="start" font-family="Consolas,monospace" font-weight="normal">my_input</text><text x="298" y="385.25" font-size="8" fill="#c05000" text-anchor="end" font-family="Consolas,monospace" font-weight="normal">[15:0]</text><line x1="515" y1="217.5" x2="533" y2="217.5" stroke="#1e6b2e" stroke-width="2"/><polygon points="533,213.5 547,217.5 533,221.5" fill="#1e6b2e"/><text x="510" y="221.5" font-size="9" fill="#111" text-anchor="end" font-family="Consolas,monospace" font-weight="normal">infer_done</text><text x="550" y="221.5" font-size="8" fill="#1e6b2e" text-anchor="start" font-family="Consolas,monospace" font-weight="normal">[63:0]</text><line x1="515" y1="348.5" x2="533" y2="348.5" stroke="#8b008b" stroke-width="2"/><polygon points="533,344.5 547,348.5 533,352.5" fill="#8b008b"/><text x="510" y="352.5" font-size="9" fill="#111" text-anchor="end" font-family="Consolas,monospace" font-weight="normal">layer_out_reg</text><text x="550" y="352.5" font-size="8" fill="#8b008b" text-anchor="start" font-family="Consolas,monospace" font-weight="normal">[63:0][15:0]</text>
<rect x="564" y="134" width="195" height="260" fill="#00000018" rx="5"/><rect x="560" y="130" width="195" height="260" fill="#d6e4f7" stroke="#2c5282" stroke-width="1.5" rx="5" /><rect x="560" y="130" width="195" height="30" fill="#1a3a6b" stroke="#1a3a6b" stroke-width="1.5" rx="5" /><rect x="560" y="155" width="195" height="5" fill="#1a3a6b"/><text x="657.5" y="150" font-size="13" fill="white" text-anchor="middle" font-family="Consolas,monospace" font-weight="bold">neuron_loader</text><text x="657.5" y="174" font-size="9" fill="#4a6fa5" text-anchor="middle" font-family="Consolas,monospace" font-weight="normal">(neurons_module)</text><line x1="542" y1="207.25" x2="560" y2="207.25" stroke="#555555" stroke-width="2"/><polygon points="542,203.25 556,207.25 542,211.25" fill="#555555"/><text x="565" y="211.25" font-size="9" fill="#111" text-anchor="start" font-family="Consolas,monospace" font-weight="normal">clk</text><line x1="542" y1="257.75" x2="560" y2="257.75" stroke="#555555" stroke-width="2"/><polygon points="542,253.75 556,257.75 542,261.75" fill="#555555"/><text x="565" y="261.75" font-size="9" fill="#111" text-anchor="start" font-family="Consolas,monospace" font-weight="normal">rst</text><line x1="542" y1="308.25" x2="560" y2="308.25" stroke="#1e6b2e" stroke-width="2"/><polygon points="542,304.25 556,308.25 542,312.25" fill="#1e6b2e"/><text x="565" y="312.25" font-size="9" fill="#111" text-anchor="start" font-family="Consolas,monospace" font-weight="normal">START_FLAG</text><line x1="542" y1="358.75" x2="560" y2="358.75" stroke="#8b008b" stroke-width="2"/><polygon points="542,354.75 556,358.75 542,362.75" fill="#8b008b"/><text x="565" y="362.75" font-size="9" fill="#111" text-anchor="start" font-family="Consolas,monospace" font-weight="normal">layer_out_reg</text><text x="538" y="362.75" font-size="8" fill="#8b008b" text-anchor="end" font-family="Consolas,monospace" font-weight="normal">[63:0][15:0]</text><line x1="755" y1="283.0" x2="773" y2="283.0" stroke="#c05000" stroke-width="2"/><polygon points="773,279.0 787,283.0 773,287.0" fill="#c05000"/><text x="750" y="287.0" font-size="9" fill="#111" text-anchor="end" font-family="Consolas,monospace" font-weight="normal">neuron_val</text><text x="790" y="287.0" font-size="8" fill="#c05000" text-anchor="start" font-family="Consolas,monospace" font-weight="normal">[15:0]</text>
<rect x="804" y="104" width="195" height="320" fill="#00000018" rx="5"/><rect x="800" y="100" width="195" height="320" fill="#d6e4f7" stroke="#2c5282" stroke-width="1.5" rx="5" /><rect x="800" y="100" width="195" height="30" fill="#1a3a6b" stroke="#1a3a6b" stroke-width="1.5" rx="5" /><rect x="800" y="125" width="195" height="5" fill="#1a3a6b"/><text x="897.5" y="120" font-size="13" fill="white" text-anchor="middle" font-family="Consolas,monospace" font-weight="bold">layer</text><text x="897.5" y="144" font-size="9" fill="#4a6fa5" text-anchor="middle" font-family="Consolas,monospace" font-weight="normal">(layer2)</text><line x1="782" y1="184.75" x2="800" y2="184.75" stroke="#555555" stroke-width="2"/><polygon points="782,180.75 796,184.75 782,188.75" fill="#555555"/><text x="805" y="188.75" font-size="9" fill="#111" text-anchor="start" font-family="Consolas,monospace" font-weight="normal">clk</text><line x1="782" y1="250.25" x2="800" y2="250.25" stroke="#555555" stroke-width="2"/><polygon points="782,246.25 796,250.25 782,254.25" fill="#555555"/><text x="805" y="254.25" font-size="9" fill="#111" text-anchor="start" font-family="Consolas,monospace" font-weight="normal">rst</text><line x1="782" y1="315.75" x2="800" y2="315.75" stroke="#1e6b2e" stroke-width="2"/><polygon points="782,311.75 796,315.75 782,319.75" fill="#1e6b2e"/><text x="805" y="319.75" font-size="9" fill="#111" text-anchor="start" font-family="Consolas,monospace" font-weight="normal">infer</text><line x1="782" y1="381.25" x2="800" y2="381.25" stroke="#c05000" stroke-width="2"/><polygon points="782,377.25 796,381.25 782,385.25" fill="#c05000"/><text x="805" y="385.25" font-size="9" fill="#111" text-anchor="start" font-family="Consolas,monospace" font-weight="normal">my_input</text><text x="778" y="385.25" font-size="8" fill="#c05000" text-anchor="end" font-family="Consolas,monospace" font-weight="normal">[15:0]</text><line x1="995" y1="217.5" x2="1013" y2="217.5" stroke="#1e6b2e" stroke-width="2"/><polygon points="1013,213.5 1027,217.5 1013,221.5" fill="#1e6b2e"/><text x="990" y="221.5" font-size="9" fill="#111" text-anchor="end" font-family="Consolas,monospace" font-weight="normal">infer_done</text><text x="1030" y="221.5" font-size="8" fill="#1e6b2e" text-anchor="start" font-family="Consolas,monospace" font-weight="normal">[9:0]</text><line x1="995" y1="348.5" x2="1013" y2="348.5" stroke="#8b008b" stroke-width="2"/><polygon points="1013,344.5 1027,348.5 1013,352.5" fill="#8b008b"/><text x="990" y="352.5" font-size="9" fill="#111" text-anchor="end" font-family="Consolas,monospace" font-weight="normal">layer_out_reg</text><text x="1030" y="352.5" font-size="8" fill="#8b008b" text-anchor="start" font-family="Consolas,monospace" font-weight="normal">[9:0][15:0]</text>
<rect x="1049" y="134" width="195" height="260" fill="#00000018" rx="5"/><rect x="1045" y="130" width="195" height="260" fill="#d6e4f7" stroke="#2c5282" stroke-width="1.5" rx="5" /><rect x="1045" y="130" width="195" height="30" fill="#1a3a6b" stroke="#1a3a6b" stroke-width="1.5" rx="5" /><rect x="1045" y="155" width="195" height="5" fill="#1a3a6b"/><text x="1142.5" y="150" font-size="13" fill="white" text-anchor="middle" font-family="Consolas,monospace" font-weight="bold">result_finder</text><text x="1142.5" y="174" font-size="9" fill="#4a6fa5" text-anchor="middle" font-family="Consolas,monospace" font-weight="normal">(findingg)</text><line x1="1027" y1="207.25" x2="1045" y2="207.25" stroke="#555555" stroke-width="2"/><polygon points="1027,203.25 1041,207.25 1027,211.25" fill="#555555"/><text x="1050" y="211.25" font-size="9" fill="#111" text-anchor="start" font-family="Consolas,monospace" font-weight="normal">clk</text><line x1="1027" y1="257.75" x2="1045" y2="257.75" stroke="#555555" stroke-width="2"/><polygon points="1027,253.75 1041,257.75 1027,261.75" fill="#555555"/><text x="1050" y="261.75" font-size="9" fill="#111" text-anchor="start" font-family="Consolas,monospace" font-weight="normal">rst</text><line x1="1027" y1="308.25" x2="1045" y2="308.25" stroke="#1e6b2e" stroke-width="2"/><polygon points="1027,304.25 1041,308.25 1027,312.25" fill="#1e6b2e"/><text x="1050" y="312.25" font-size="9" fill="#111" text-anchor="start" font-family="Consolas,monospace" font-weight="normal">start_search</text><line x1="1027" y1="358.75" x2="1045" y2="358.75" stroke="#8b008b" stroke-width="2"/><polygon points="1027,354.75 1041,358.75 1027,362.75" fill="#8b008b"/><text x="1050" y="362.75" font-size="9" fill="#111" text-anchor="start" font-family="Consolas,monospace" font-weight="normal">layer_out_reg</text><text x="1023" y="362.75" font-size="8" fill="#8b008b" text-anchor="end" font-family="Consolas,monospace" font-weight="normal">[9:0][15:0]</text><line x1="1240" y1="232.5" x2="1258" y2="232.5" stroke="#1e6b2e" stroke-width="2"/><polygon points="1258,228.5 1272,232.5 1258,236.5" fill="#1e6b2e"/><text x="1235" y="236.5" font-size="9" fill="#111" text-anchor="end" font-family="Consolas,monospace" font-weight="normal">found</text><line x1="1240" y1="333.5" x2="1258" y2="333.5" stroke="#c05000" stroke-width="2"/><polygon points="1258,329.5 1272,333.5 1258,337.5" fill="#c05000"/><text x="1235" y="337.5" font-size="9" fill="#111" text-anchor="end" font-family="Consolas,monospace" font-weight="normal">result</text><text x="1275" y="337.5" font-size="8" fill="#c05000" text-anchor="start" font-family="Consolas,monospace" font-weight="normal">[3:0]</text>
<rect x="584" y="564" width="155" height="220" fill="#00000018" rx="5"/><rect x="580" y="560" width="155" height="220" fill="#d6e4f7" stroke="#2c5282" stroke-width="1.5" rx="5" /><rect x="580" y="560" width="155" height="30" fill="#5a3a9a" stroke="#5a3a9a" stroke-width="1.5" rx="5" /><rect x="580" y="585" width="155" height="5" fill="#5a3a9a"/><text x="657.5" y="580" font-size="13" fill="white" text-anchor="middle" font-family="Consolas,monospace" font-weight="bold">FSM</text><text x="657.5" y="604" font-size="9" fill="#4a6fa5" text-anchor="middle" font-family="Consolas,monospace" font-weight="normal">(network ctrl)</text><line x1="562" y1="632.25" x2="580" y2="632.25" stroke="#8b4513" stroke-width="2"/><polygon points="562,628.25 576,632.25 562,636.25" fill="#8b4513"/><text x="585" y="636.25" font-size="9" fill="#111" text-anchor="start" font-family="Consolas,monospace" font-weight="normal">test</text><line x1="562" y1="672.75" x2="580" y2="672.75" stroke="#1e6b2e" stroke-width="2"/><polygon points="562,668.75 576,672.75 562,676.75" fill="#1e6b2e"/><text x="585" y="676.75" font-size="9" fill="#111" text-anchor="start" font-family="Consolas,monospace" font-weight="normal">l1_done</text><text x="558" y="676.75" font-size="8" fill="#1e6b2e" text-anchor="end" font-family="Consolas,monospace" font-weight="normal">[63:0]</text><line x1="562" y1="713.25" x2="580" y2="713.25" stroke="#1e6b2e" stroke-width="2"/><polygon points="562,709.25 576,713.25 562,717.25" fill="#1e6b2e"/><text x="585" y="717.25" font-size="9" fill="#111" text-anchor="start" font-family="Consolas,monospace" font-weight="normal">l2_done</text><text x="558" y="717.25" font-size="8" fill="#1e6b2e" text-anchor="end" font-family="Consolas,monospace" font-weight="normal">[9:0]</text><line x1="562" y1="753.75" x2="580" y2="753.75" stroke="#1e6b2e" stroke-width="2"/><polygon points="562,749.75 576,753.75 562,757.75" fill="#1e6b2e"/><text x="585" y="757.75" font-size="9" fill="#111" text-anchor="start" font-family="Consolas,monospace" font-weight="normal">found</text><line x1="735" y1="625.5" x2="753" y2="625.5" stroke="#1e6b2e" stroke-width="2"/><polygon points="753,621.5 767,625.5 753,629.5" fill="#1e6b2e"/><text x="730" y="629.5" font-size="9" fill="#111" text-anchor="end" font-family="Consolas,monospace" font-weight="normal">START_FLAG1</text><line x1="735" y1="652.5" x2="753" y2="652.5" stroke="#1e6b2e" stroke-width="2"/><polygon points="753,648.5 767,652.5 753,656.5" fill="#1e6b2e"/><text x="730" y="656.5" font-size="9" fill="#111" text-anchor="end" font-family="Consolas,monospace" font-weight="normal">infer_l1</text><line x1="735" y1="679.5" x2="753" y2="679.5" stroke="#1e6b2e" stroke-width="2"/><polygon points="753,675.5 767,679.5 753,683.5" fill="#1e6b2e"/><text x="730" y="683.5" font-size="9" fill="#111" text-anchor="end" font-family="Consolas,monospace" font-weight="normal">START_FLAG2</text><line x1="735" y1="706.5" x2="753" y2="706.5" stroke="#1e6b2e" stroke-width="2"/><polygon points="753,702.5 767,706.5 753,710.5" fill="#1e6b2e"/><text x="730" y="710.5" font-size="9" fill="#111" text-anchor="end" font-family="Consolas,monospace" font-weight="normal">infer_l2</text><line x1="735" y1="733.5" x2="753" y2="733.5" stroke="#1e6b2e" stroke-width="2"/><polygon points="753,729.5 767,733.5 753,737.5" fill="#1e6b2e"/><text x="730" y="737.5" font-size="9" fill="#111" text-anchor="end" font-family="Consolas,monospace" font-weight="normal">start_search</text><line x1="735" y1="760.5" x2="753" y2="760.5" stroke="#c05000" stroke-width="2"/><polygon points="753,756.5 767,760.5 753,764.5" fill="#c05000"/><text x="730" y="764.5" font-size="9" fill="#111" text-anchor="end" font-family="Consolas,monospace" font-weight="normal">complete</text>
<rect x="330" y="368" width="175" height="34" fill="#c8d8f0" stroke="#2c5282" stroke-width="1" rx="3" stroke-dasharray="4,2"/><text x="417.5" y="384" font-size="9" fill="#1a3a6b" text-anchor="middle" font-family="Consolas,monospace" font-weight="normal">neuron × HIDDEN_NODES</text><text x="417.5" y="396" font-size="8" fill="#4a6fa5" text-anchor="middle" font-family="Consolas,monospace" font-weight="normal">(generate loop)</text>
<rect x="810" y="368" width="175" height="34" fill="#c8d8f0" stroke="#2c5282" stroke-width="1" rx="3" stroke-dasharray="4,2"/><text x="897.5" y="384" font-size="9" fill="#1a3a6b" text-anchor="middle" font-family="Consolas,monospace" font-weight="normal">neuron × NEURONNODES</text><text x="897.5" y="396" font-size="8" fill="#4a6fa5" text-anchor="middle" font-family="Consolas,monospace" font-weight="normal">(generate loop)</text>
<line x1="35" y1="175" x2="90" y2="175" stroke="#555555" stroke-width="2"/><polygon points="35,170 35,180 50,175" fill="#555555"/><text x="32" y="179" font-size="10" fill="#555555" text-anchor="end" font-family="Consolas,monospace" font-weight="normal">clk</text>
<line x1="35" y1="205" x2="90" y2="205" stroke="#555555" stroke-width="2"/><polygon points="35,200 35,210 50,205" fill="#555555"/><text x="32" y="209" font-size="10" fill="#555555" text-anchor="end" font-family="Consolas,monospace" font-weight="normal">rst</text>
<line x1="35" y1="248" x2="90" y2="248" stroke="#8b4513" stroke-width="2"/><polygon points="35,243 35,253 50,248" fill="#8b4513"/><text x="32" y="252" font-size="10" fill="#8b4513" text-anchor="end" font-family="Consolas,monospace" font-weight="normal">test</text>
<line x1="1240" y1="333.5" x2="1525" y2="333.5" stroke="#c05000" stroke-width="2"/><polygon points="1510,328.5 1510,338.5 1525,333.5" fill="#c05000"/><text x="1528" y="337.5" font-size="10" fill="#c05000" text-anchor="start" font-family="Consolas,monospace" font-weight="normal">inference[3:0]</text>
<line x1="735" y1="760.5" x2="1525" y2="760.5" stroke="#c05000" stroke-width="2"/><polygon points="1510,755.5 1510,765.5 1525,760.5" fill="#c05000"/><text x="1528" y="764.5" font-size="10" fill="#c05000" text-anchor="start" font-family="Consolas,monospace" font-weight="normal">complete</text>
<polyline points="285,283.0 302.5,283.0 302.5,381.25 320,381.25" fill="none" stroke="#c05000" stroke-width="3" /><rect x="284.5" y="323.125" width="36" height="14" fill="white" opacity="0.9" rx="2"/><text x="302.5" y="334.125" font-size="8" fill="#c05000" text-anchor="middle" font-family="Consolas,monospace" font-weight="normal">pixel_data
[15:0]</text>
<polyline points="515,348.5 537.5,348.5 537.5,358.75 560,358.75" fill="none" stroke="#8b008b" stroke-width="3" /><rect x="519.5" y="344.625" width="36" height="14" fill="white" opacity="0.9" rx="2"/><text x="537.5" y="355.625" font-size="8" fill="#8b008b" text-anchor="middle" font-family="Consolas,monospace" font-weight="normal">[63:0][15:0]</text>
<polyline points="755,283.0 777.5,283.0 777.5,381.25 800,381.25" fill="none" stroke="#c05000" stroke-width="3" /><rect x="759.5" y="323.125" width="36" height="14" fill="white" opacity="0.9" rx="2"/><text x="777.5" y="334.125" font-size="8" fill="#c05000" text-anchor="middle" font-family="Consolas,monospace" font-weight="normal">neuron_val
[15:0]</text>
<polyline points="995,348.5 1020.0,348.5 1020.0,358.75 1045,358.75" fill="none" stroke="#8b008b" stroke-width="3" /><rect x="1002.0" y="344.625" width="36" height="14" fill="white" opacity="0.9" rx="2"/><text x="1020.0" y="355.625" font-size="8" fill="#8b008b" text-anchor="middle" font-family="Consolas,monospace" font-weight="normal">[9:0][15:0]</text>
<polyline points="735,625.5 412.5,625.5 412.5,308.25 90,308.25" fill="none" stroke="#1e6b2e" stroke-width="1.5" stroke-dasharray="5,3"/>
<polyline points="735,652.5 527.5,652.5 527.5,315.75 320,315.75" fill="none" stroke="#1e6b2e" stroke-width="1.5" stroke-dasharray="5,3"/>
<polyline points="735,679.5 647.5,679.5 647.5,308.25 560,308.25" fill="none" stroke="#1e6b2e" stroke-width="1.5" stroke-dasharray="5,3"/>
<polyline points="735,706.5 767.5,706.5 767.5,315.75 800,315.75" fill="none" stroke="#1e6b2e" stroke-width="1.5" stroke-dasharray="5,3"/>
<polyline points="735,733.5 890.0,733.5 890.0,308.25 1045,308.25" fill="none" stroke="#1e6b2e" stroke-width="1.5" stroke-dasharray="5,3"/>
<polyline points="515,217.5 547.5,217.5 547.5,672.75 580,672.75" fill="none" stroke="#1e6b2e" stroke-width="1.5" stroke-dasharray="5,3"/>
<polyline points="995,217.5 787.5,217.5 787.5,713.25 580,713.25" fill="none" stroke="#1e6b2e" stroke-width="1.5" stroke-dasharray="5,3"/>
<polyline points="1240,232.5 910.0,232.5 910.0,753.75 580,753.75" fill="none" stroke="#1e6b2e" stroke-width="1.5" stroke-dasharray="5,3"/>
<line x1="35" y1="248" x2="580" y2="632.25" stroke="#8b4513" stroke-width="1.5" stroke-dasharray="5,3"/>
<rect x="50" y="850" width="360" height="80" fill="#ffffffcc" stroke="#aaaacc" stroke-width="1.5" rx="6" />
<text x="230" y="866" font-size="11" fill="#333" text-anchor="middle" font-family="Consolas,monospace" font-weight="bold">Legend</text>
<line x1="65" y1="885" x2="95" y2="885" stroke="#c05000" stroke-width="3" />
<text x="100" y="889" font-size="9" fill="#333" text-anchor="start" font-family="Consolas,monospace" font-weight="normal">Data bus</text>
<line x1="245" y1="885" x2="275" y2="885" stroke="#8b008b" stroke-width="3" />
<text x="280" y="889" font-size="9" fill="#333" text-anchor="start" font-family="Consolas,monospace" font-weight="normal">Packed array bus</text>
<line x1="65" y1="907" x2="95" y2="907" stroke="#1e6b2e" stroke-width="1.5" stroke-dasharray="5,3"/>
<text x="100" y="911" font-size="9" fill="#333" text-anchor="start" font-family="Consolas,monospace" font-weight="normal">Control signal</text>
<line x1="245" y1="907" x2="275" y2="907" stroke="#555555" stroke-width="1.5" />
<text x="280" y="911" font-size="9" fill="#333" text-anchor="start" font-family="Consolas,monospace" font-weight="normal">Clock / Reset</text>
</svg>